<?xml version="1.0" encoding="UTF-8"?><svg xmlns="http://www.w3.org/2000/svg" width="56" height="56" viewBox="0 0 56 56"><defs><linearGradient id="a" x1="17.63%" x2="83.66%" y1="8.94%" y2="91.06%"><stop offset="0%" stop-color="#EA00C3"/><stop offset="100%" stop-color="#BE00FF"/></linearGradient></defs><path fill="url(#a)" fill-rule="evenodd" d="M23.51 37.58a2.16 2.16 0 01-1.99 1.71h-.16l-7.25-.14A2.17 2.17 0 0112 36.94a2.17 2.17 0 012.04-2.14h.16l1.92.04a14.7 14.7 0 014.64-20.99 14.32 14.32 0 015.35-1.83 2.16 2.16 0 012.42 1.87 2.17 2.17 0 01-1.86 2.44 10.31 10.31 0 00-6.82 16.28l.24.32.6-2.8a2.17 2.17 0 012.56-1.68 2.17 2.17 0 011.68 2.43l-.02.16-1.4 6.54zm11.73 1.57a14.32 14.32 0 01-5.35 1.83 2.17 2.17 0 01-.56-4.31 10.31 10.31 0 006.82-16.28l-.24-.32-.6 2.8a2.16 2.16 0 01-4.24-.75l.03-.16 1.39-6.54a2.17 2.17 0 011.95-1.71h.2l7.25.14A2.17 2.17 0 0144 16.06a2.17 2.17 0 01-2.04 2.14h-.16l-1.92-.04a14.69 14.69 0 01-4.64 20.99z"/></svg>
