<?xml version="1.0" encoding="UTF-8"?><svg xmlns="http://www.w3.org/2000/svg" width="56" height="56" viewBox="0 0 56 56"><defs><linearGradient id="a" x1="50%" x2="15.18%" y1="0%" y2="116.42%"><stop offset="0%" stop-color="#FFB400"/><stop offset="100%" stop-color="#FF6400"/></linearGradient></defs><path fill="url(#a)" fill-rule="evenodd" d="M29.83 23.09c4.38 3.72 6.91 8.67 5.2 10.72-.15.19-.34.35-.57.48l-.08.04-.2.15-.3.21c-2.47 1.73-7.83 4.68-14.67 8.23l-1.74.9-3.71 1.89a2.6 2.6 0 01-3.68-2.93l.04-.14 1.2-4c2.62-8.69 4.78-15.33 6.03-18.13l.18-.38.02-.08c.04-.11.1-.22.15-.31l.1-.15.1-.13c1.69-2.04 7.5-.12 11.93 3.63zm7.51 11.57c.62-.74 1.7-.83 2.44-.21.73.61.82 1.71.21 2.45-.61.74-1.7.83-2.43.22a1.75 1.75 0 01-.22-2.46zM20.13 21.24h-.15l.02.12c.08.5.32 1.15.71 1.9a18.5 18.5 0 004.33 5.2 17.06 17.06 0 005.77 3.29c.8.24 1.48.35 1.97.33h.1l.1-.02v-.07l-.01-.09a5.87 5.87 0 00-.63-1.77 17.3 17.3 0 00-4.18-5.04 18.74 18.74 0 00-5.95-3.44 7.11 7.11 0 00-2.08-.41zm19.9 1.84c2.2-.49 4.68-.04 7.36 1.38.56.3.77.99.48 1.55-.3.56-.98.78-1.53.48-2.22-1.17-4.16-1.54-5.82-1.17a5.06 5.06 0 00-2.72 1.6l-.07.1c-.35.41-.95.52-1.42.25l-.1-.06a1.15 1.15 0 01-.27-1.6l.05-.08a7.32 7.32 0 014.04-2.46zM37.4 8.4c.38-.5 1.1-.6 1.6-.21l.15.13a5.5 5.5 0 011.05 1.26c.58 1.07.43 2.17-.5 2.95-.48.4-1.07.59-1.75.56a5.7 5.7 0 01-1.37-.26l-.45-.12-.26-.06h-.05l.03.03c.1.15.27.35.54.64l.41.43c.47.5.68.78.87 1.16.4.84.34 1.7-.21 2.45l-.13.15c-.4.45-.97.65-1.66.64-.22 0-.4-.02-.65-.06l-.3-.05-.73-.13-.18-.03-.28-.04-.38-.04.05.1.21.25.1.09.18.16.15.11c.44.38.54 1.04.2 1.53-.35.52-1.06.66-1.57.3l-.17-.12-.35-.3a3.94 3.94 0 01-.8-1.02 2.27 2.27 0 01.07-2.41l.02-.02c.33-.48.82-.78 1.4-.9.39-.07.8-.06 1.32 0l.42.08.8.14.24.04.18.02-.06-.07-.17-.21-.17-.2-.58-.6c-.4-.43-.59-.67-.77-.98a2.3 2.3 0 01-.2-2.15c.4-.93 1.2-1.38 2.22-1.3.25.02.41.05.74.13l.85.22c.52.13.72.13.79.08l.01-.01-.03-.03-.07-.13a2.4 2.4 0 00-.5-.54l-.14-.12a1.16 1.16 0 01-.12-1.54zm-26.12 9.26a1.29 1.29 0 011.82-.17c.55.47.62 1.3.16 1.85a1.3 1.3 0 01-1.83.16 1.32 1.32 0 01-.15-1.84zm31.45-.89c.5-.6 1.37-.67 1.96-.17.59.5.66 1.38.17 1.97-.5.6-1.37.67-1.95.17a1.41 1.41 0 01-.18-1.97zM19.18 6.72c.23-.59.9-.87 1.48-.63l.29.12a6.47 6.47 0 013.12 2.74c.55 1 .79 2.13.72 3.37a8.72 8.72 0 01-.64 2.84l-.02.05-.1.22c-.28.57-.96.8-1.52.53-.57-.28-.8-.97-.52-1.54l.06-.14a6.3 6.3 0 00.47-2.08c.04-.81-.1-1.53-.43-2.13a4.36 4.36 0 00-2.3-1.85 1.15 1.15 0 01-.61-1.5zm8.86-.05c.66-.8 1.83-.9 2.6-.23a1.86 1.86 0 11-2.37 2.86 1.88 1.88 0 01-.23-2.63z"/></svg>
