<?xml version="1.0" encoding="UTF-8"?><svg xmlns="http://www.w3.org/2000/svg" xmlns:xlink="http://www.w3.org/1999/xlink" width="56" height="56" viewBox="0 0 56 56"><defs><linearGradient id="a" x1="35.7%" x2="62%" y1="28.3%" y2="78%"><stop offset="0%" stop-color="#FF429C"/><stop offset="100%" stop-color="#F600FF"/></linearGradient><linearGradient id="c" x1="68.6%" x2="39%" y1="11.9%" y2="91.9%"><stop offset="0%" stop-color="#FF50A4"/><stop offset="100%" stop-color="#FF1D64"/></linearGradient><linearGradient id="d" x1="46.6%" x2="33.4%" y1="3.6%" y2="103.5%"><stop offset="0%" stop-color="#1DCBFF"/><stop offset="100%" stop-color="#0071FF"/></linearGradient><path id="b" d="M38 15.5c2 0 3.8.6 5.3 2 1.8 1.5 2.8 4 2.8 7.5 0 3.4-1 6.3-2.9 8.4a8.7 8.7 0 01-3.7 2.6l.8 1.9c.2.3 0 .7-.4.7a13.7 13.7 0 01-1.4 0 5.8 5.8 0 01-.9-.2 1.7 1.7 0 00-.4 0 3.8 3.8 0 00-1 .1H36a.5.5 0 01-.6-.6l.9-2a8.8 8.8 0 01-3.6-2.5c-1.9-2-3-5-3-8.4 0-3.4 1-6 2.9-7.6a8 8 0 015.3-2z"/></defs><g fill="none"><path fill="#A9ADBA" d="M37.7 34.3a1 1 0 012 .3l-.5 1.2-.2.3c-.3.3-.3.4-.3.7 0 .4 0 .7.2 1.2v.3c.3.7.4 1.2.4 1.7s-.1.9-.3 1.3l-.1.3-.2.3a3 3 0 00-.4 1.4 1 1 0 11-2 0c0-.8.2-1.4.6-2.2l.2-.4.2-.7-.1-.7-.2-.6a6.2 6.2 0 01-.3-1.9c0-.7.1-1.1.5-1.6l.2-.3.3-.6z"/><use fill="url(#a)" xlink:href="#b"/><use fill="url(#c)" xlink:href="#b"/><path fill="#A9ADBA" d="M22 34.7a1 1 0 00-2 .3c.2.7.4 1 .8 1.6l.3.3c.3.4.4.6.4 1 0 .2 0 .4-.3.9l-.3.3c-.8 1.2-1 2-.8 3 0 .7.3 1.2.7 1.7l.2.5c.5.6.6 1 .5 1.7a1 1 0 002 .2 3.8 3.8 0 00-.7-2.9l-.2-.3c-.4-.5-.5-.8-.6-1.2 0-.4 0-.7.4-1.2l.2-.4c.7-1 1-1.5 1-2.3a3 3 0 00-.9-2.1l-.2-.3a2 2 0 01-.4-.8z"/><path fill="url(#d)" d="M22.4 9c2.6 0 5 .8 7 2.5 2.2 2 3.5 5.3 3.5 9.7 0 4.4-1.4 8-3.7 10.7a11.2 11.2 0 01-4.8 3.3l1.1 2.4c.2.5 0 1-.5 1h-.1a17.4 17.4 0 01-1.8-.1l-1-.2a2.2 2.2 0 00-.6 0 5 5 0 00-1.3.2H20a.7.7 0 01-.8-.8l1.1-2.5a11.3 11.3 0 01-4.6-3.3A15.9 15.9 0 0112 21.2c0-4.4 1.3-7.6 3.6-9.7A10.2 10.2 0 0122.4 9z"/></g></svg>
